<svg width="24" height="24" viewBox="0 0 24 24" fill="none" xmlns="http://www.w3.org/2000/svg">
<path d="M4.32698 5.63803C4 6.27976 4 7.11984 4 8.8V19.2C4 20.8802 4 21.7202 4.32698 22.362C4.6146 22.9265 5.07354 23.3854 5.63803 23.673C6.27976 24 7.11984 24 8.8 24H15.2C16.8802 24 17.7202 24 18.362 23.673C18.9265 23.3854 19.3854 22.9265 19.673 22.362C20 21.7202 20 20.8802 20 19.2V11.8C20 11.52 20 11.38 19.9455 11.273C19.8976 11.1789 19.8211 11.1024 19.727 11.0545C19.62 11 19.48 11 19.2 11H17C14.7909 11 13 9.20914 13 7V4.8C13 4.51997 13 4.37996 12.9455 4.273C12.8976 4.17892 12.8211 4.10243 12.727 4.0545C12.62 4 12.48 4 12.2 4H8.8C7.11984 4 6.27976 4 5.63803 4.32698C5.07354 4.6146 4.6146 5.07354 4.32698 5.63803Z" fill="black" fill-opacity="0.78"/>
<path d="M15 4.70711C15 4.31658 15.3166 4 15.7071 4C15.8946 4 16.0745 4.0745 16.2071 4.20711L19.7929 7.79289C19.9255 7.9255 20 8.10536 20 8.29289C20 8.68342 19.6834 9 19.2929 9H17C15.8954 9 15 8.10457 15 7V4.70711Z" fill="black" fill-opacity="0.78"/>
</svg>
