<svg width="20" height="20" viewBox="0 0 20 20" fill="none" xmlns="http://www.w3.org/2000/svg">
<g clip-path="url(#clip0_57_347)">
<path fill-rule="evenodd" clip-rule="evenodd" d="M6.25 18.125H13.75C14.7855 18.125 15.625 17.2855 15.625 16.25V10.3033C15.625 9.80602 15.4275 9.32911 15.0758 8.97747L11.0225 4.92418C10.6709 4.57254 10.194 4.375 9.6967 4.375L6.25 4.375C5.21447 4.375 4.375 5.21447 4.375 6.25L4.375 16.25C4.375 17.2855 5.21447 18.125 6.25 18.125ZM17.5 10.3033C17.5 9.30874 17.1049 8.35491 16.4016 7.65165L12.3484 3.59835C11.6451 2.89509 10.6913 2.5 9.6967 2.5H6.25C4.17893 2.5 2.5 4.17893 2.5 6.25V16.25C2.5 18.3211 4.17893 20 6.25 20H13.75C15.8211 20 17.5 18.3211 17.5 16.25L17.5 10.3033ZM6.25 11.5625C6.25 11.0447 6.66973 10.625 7.1875 10.625H12.8125C13.3303 10.625 13.75 11.0447 13.75 11.5625C13.75 12.0803 13.3303 12.5 12.8125 12.5H7.1875C6.66973 12.5 6.25 12.0803 6.25 11.5625ZM7.1875 14.375C6.66973 14.375 6.25 14.7947 6.25 15.3125C6.25 15.8303 6.66973 16.25 7.1875 16.25H10.3125C10.8303 16.25 11.25 15.8303 11.25 15.3125C11.25 14.7947 10.8303 14.375 10.3125 14.375H7.1875Z" fill="black" fill-opacity="0.78"/>
</g>
<defs>
<clipPath id="clip0_57_347">
<rect width="20" height="20" fill="white"/>
</clipPath>
</defs>
</svg>
