<svg width="24" height="24" viewBox="0 0 24 24" fill="none" xmlns="http://www.w3.org/2000/svg">
<path fill-rule="evenodd" clip-rule="evenodd" d="M16.1636 5.72488L20.2756 9.83638C22.5751 12.1359 22.5751 15.8639 20.2756 18.1634L16.1636 22.2754C13.8641 24.5749 10.1361 24.5749 7.83663 22.2754L3.72462 18.1634C1.42513 15.8639 1.42513 12.1359 3.72462 9.83638L7.83663 5.72438C10.1361 3.42488 13.8641 3.42538 16.1636 5.72488ZM4.75012 16.3959V11.6029C4.75012 8.92288 6.92312 6.74987 9.60362 6.74987H14.3966C17.0771 6.74987 19.2501 8.92287 19.2501 11.6034V16.3964C19.2501 19.0769 17.0771 21.2499 14.3966 21.2499H9.60362C6.92312 21.2499 4.75012 19.0764 4.75012 16.3959Z" fill="black" fill-opacity="0.78"/>
<path d="M20.2447 4.50001C20.4617 4.50051 20.6752 4.55601 20.8647 4.66101C21.0632 4.76601 21.2267 4.92651 21.3347 5.12251C21.4435 5.31286 21.5007 5.52828 21.5007 5.74751C21.5007 5.96673 21.4435 6.18216 21.3347 6.37251C21.2262 6.56751 21.0647 6.72851 20.8677 6.83651C20.6765 6.94371 20.461 7.00001 20.2417 7.00001C20.028 6.99547 19.8186 6.93828 19.6322 6.83351C19.437 6.7256 19.2762 6.56477 19.1682 6.36951C19.058 6.17965 19 5.96403 19 5.74451C19 5.52498 19.058 5.30936 19.1682 5.11951C19.2747 4.92251 19.4357 4.75951 19.6322 4.65001C19.8206 4.54931 20.0312 4.49772 20.2447 4.50001ZM20.2447 4.70501C20.0639 4.70638 19.8863 4.75314 19.7282 4.84101C19.5632 4.92951 19.4272 5.06301 19.3357 5.22601C19.245 5.38473 19.1972 5.56441 19.1972 5.74726C19.1972 5.9301 19.245 6.10978 19.3357 6.26851C19.4257 6.43101 19.5612 6.56451 19.7257 6.65351C19.8844 6.74495 20.0644 6.79308 20.2475 6.79308C20.4306 6.79308 20.6106 6.74495 20.7692 6.65351C20.9332 6.56451 21.0687 6.43101 21.1592 6.26851C21.25 6.10978 21.2978 5.9301 21.2978 5.74726C21.2978 5.56441 21.25 5.38473 21.1592 5.22601C21.0684 5.06226 20.9318 4.92849 20.7662 4.84101C20.6067 4.75233 20.4273 4.70554 20.2447 4.70501ZM19.7447 6.39151V5.04601H20.2087C20.3252 5.04051 20.4422 5.05251 20.5547 5.08101C20.6247 5.10451 20.6847 5.15101 20.7247 5.21251C20.7582 5.26101 20.779 5.31707 20.7854 5.37564C20.7918 5.43421 20.7835 5.49345 20.7612 5.54801C20.7429 5.59223 20.7157 5.63222 20.6812 5.66551C20.609 5.74059 20.5104 5.78454 20.4062 5.78801C20.4485 5.80493 20.4876 5.82894 20.5217 5.85901C20.5984 5.94301 20.6652 6.03401 20.7222 6.13201L20.8872 6.40501H20.6122L20.4922 6.19201C20.4353 6.07479 20.3579 5.96864 20.2637 5.87851C20.2115 5.84525 20.1501 5.82901 20.0882 5.83201H19.9592V6.40501L19.7447 6.39151ZM19.9617 5.63251H20.2367C20.3265 5.64201 20.4169 5.622 20.4942 5.57551C20.517 5.55834 20.5353 5.53601 20.5478 5.51037C20.5602 5.48472 20.5664 5.4565 20.5657 5.42801C20.5672 5.38938 20.5546 5.35155 20.5302 5.32151C20.5077 5.28949 20.4762 5.2648 20.4397 5.25051C20.3684 5.22982 20.2939 5.22153 20.2197 5.22601H19.9697L19.9617 5.63251Z" fill="black" fill-opacity="0.78"/>
</svg>
